<?xml version="1.0" encoding="utf-8"?>
<!-- Generator: Adobe Illustrator 26.3.1, SVG Export Plug-In . SVG Version: 6.00 Build 0)  -->
<svg version="1.1" id="圖層_1" xmlns="http://www.w3.org/2000/svg" xmlns:xlink="http://www.w3.org/1999/xlink" x="0px" y="0px"
	 viewBox="0 0 127.17 124.28" style="enable-background:new 0 0 127.17 124.28;" xml:space="preserve">
<style type="text/css">
	.st0{fill:#595757;stroke:#000000;stroke-miterlimit:10;}
	.st1{fill:#FFFFFF;}
</style>
<path class="st0" d="M96.14,117.38H32.92c-12.7,0-22.99-10.29-22.99-22.99V31.17c0-12.7,10.29-22.99,22.99-22.99h63.22
	c12.7,0,22.99,10.29,22.99,22.99v63.22C119.13,107.09,108.83,117.38,96.14,117.38z"/>
<g>
	<g>
		<path class="st1" d="M30.29,88.26V38.34h4.46v49.92H30.29z M30.29,42.62v-4.29h31.92v4.29H30.29z M30.29,65.41v-4.29h25.59v4.29
			H30.29z M30.29,88.26v-4.29h31.92v4.29H30.29z"/>
		<path class="st1" d="M70.3,39.67v-4.15h12.41v4.15H70.3z M94.6,88.96c-4.27,0-7.42-1.11-9.46-3.34
			c-2.04-2.23-3.06-5.65-3.06-10.27V35.52h4.71v39.73c0,2.11,0.3,3.85,0.9,5.22s1.55,2.4,2.87,3.08c1.31,0.68,3.05,1.02,5.2,1.02
			c1.92,0,4.32-0.37,7.21-1.12l0.53,4.29c-1.52,0.42-2.99,0.73-4.39,0.93C97.69,88.86,96.19,88.96,94.6,88.96z"/>
	</g>
</g>
</svg>
